<svg width="0" height="0" class="hidden">
  <!--Socials-->
  <symbol fill="none" xmlns="http://www.w3.org/2000/svg" viewBox="0 0 49 48" id="youtube">
    <path
      d="M43.1092 13.9196C42.7267 11.8084 40.9042 10.2709 38.7892 9.7909C35.6242 9.11965 29.7667 8.63965 23.4292 8.63965C17.0955 8.63965 11.1442 9.11965 7.97547 9.7909C5.86422 10.2709 4.03797 11.7109 3.65547 13.9196C3.26922 16.3196 2.88672 19.6796 2.88672 23.9996C2.88672 28.3196 3.26922 31.6796 3.74922 34.0796C4.13547 36.1909 5.95797 37.7284 8.06922 38.2084C11.4292 38.8796 17.1892 39.3596 23.5267 39.3596C29.8642 39.3596 35.6242 38.8796 38.9842 38.2084C41.0955 37.7284 42.918 36.2884 43.3042 34.0796C43.6867 31.6796 44.1667 28.2221 44.2642 23.9996C44.0692 19.6796 43.5892 16.3196 43.1092 13.9196ZM18.2467 30.7196V17.2796L29.958 23.9996L18.2467 30.7196Z"
      fill="currentColor"/>
  </symbol>
  <symbol fill="none" xmlns="http://www.w3.org/2000/svg" viewBox="0 0 24 24" id="medium">
    <path
      d="M7.19996 18.2398C10.6462 18.2398 13.44 15.446 13.44 11.9998C13.44 8.55351 10.6462 5.75977 7.19996 5.75977C3.7537 5.75977 0.959961 8.55351 0.959961 11.9998C0.959961 15.446 3.7537 18.2398 7.19996 18.2398Z"
      fill="currentColor"/>
    <path
      d="M17.0399 6.24023C15.3167 6.24023 13.9199 8.81927 13.9199 12.0002C13.9199 12.5969 13.9689 13.1719 14.0601 13.7129C14.1815 14.4343 14.3778 15.0948 14.6322 15.6641C14.7594 15.9487 14.901 16.2103 15.0551 16.445C15.3633 16.9145 15.7214 17.2769 16.1121 17.5015C16.4054 17.6695 16.7169 17.7602 17.0399 17.7602C17.363 17.7602 17.6745 17.6695 17.9678 17.5015C18.3585 17.2769 18.7166 16.9145 19.0247 16.445C19.1788 16.2103 19.3204 15.9487 19.4476 15.6641C19.702 15.0953 19.8983 14.4343 20.0198 13.7129C20.111 13.1719 20.1599 12.5969 20.1599 12.0002C20.1599 8.81927 18.7631 6.24023 17.0399 6.24023Z"
      fill="currentColor"/>
    <path
      d="M21.8399 6.72021C21.7156 6.72021 21.5956 6.80325 21.4833 6.95781C21.4079 7.06053 21.3359 7.19493 21.2682 7.35765C21.2341 7.43877 21.201 7.52709 21.1693 7.62213C21.1055 7.81173 21.046 8.02821 20.9917 8.26677C20.8833 8.74437 20.7954 9.31365 20.7345 9.94533C20.7042 10.2612 20.6807 10.5929 20.6644 10.9365C20.6481 11.2797 20.6399 11.6359 20.6399 12.0002C20.6399 12.3645 20.6481 12.7207 20.6644 13.0644C20.6802 13.4081 20.7037 13.7397 20.7345 14.0556C20.7954 14.6873 20.8833 15.2561 20.9917 15.7341C21.046 15.9732 21.1055 16.1892 21.1693 16.3788C21.201 16.4738 21.2341 16.5621 21.2682 16.6433C21.3364 16.806 21.4084 16.9404 21.4833 17.0431C21.5956 17.1972 21.7156 17.2802 21.8399 17.2802C22.5028 17.2802 23.0399 14.9162 23.0399 12.0002C23.0399 9.08421 22.5028 6.72021 21.8399 6.72021Z"
      fill="currentColor"/>
  </symbol>
  <symbol fill="none" xmlns="http://www.w3.org/2000/svg" viewBox="0 0 24 24" id="discord">
    <path
      d="M20.3044 5.59228C19.9799 5.1022 19.5205 4.72732 18.9757 4.5094C17.793 4.03516 16.7759 3.71836 15.8658 3.5398C15.2274 3.415 14.5953 3.72892 14.2914 4.32028L14.2156 4.46812C13.5417 4.39372 12.826 4.36876 12.0109 4.3894C11.1753 4.36924 10.4572 4.39372 9.78231 4.46812L9.70695 4.32028C9.40311 3.72892 8.76999 3.41548 8.13303 3.54028C7.22295 3.71836 6.20535 4.03516 5.02311 4.50988C4.47879 4.7278 4.01943 5.1022 3.69447 5.59276C1.42839 9.01564 0.540391 12.7078 0.980071 16.8809C0.995431 17.0273 1.07703 17.1584 1.20135 17.2366C2.94471 18.3358 4.45335 19.0884 5.94903 19.6059C6.57447 19.8243 7.26807 19.58 7.63719 19.016L8.29527 18.0075C7.77111 17.8097 7.25943 17.5755 6.76887 17.2956C6.53895 17.1646 6.45879 16.8713 6.58983 16.6414C6.72087 16.4105 7.01415 16.3294 7.24455 16.4624C8.70423 17.2947 10.3545 17.7348 12.0167 17.7348C13.6789 17.7348 15.3292 17.2947 16.7889 16.4624C17.0188 16.3294 17.3121 16.4105 17.4436 16.6414C17.5746 16.8713 17.4945 17.1646 17.2645 17.2956C16.7577 17.5851 16.2277 17.826 15.6849 18.0272L16.3621 19.0361C16.641 19.4513 17.1013 19.6875 17.5756 19.6875C17.7301 19.6875 17.8861 19.662 18.0378 19.6102C19.5378 19.0923 21.0493 18.3387 22.7965 17.2371C22.9209 17.1588 23.0025 17.0273 23.0178 16.8814C23.4585 12.7078 22.5705 9.01516 20.3044 5.59228ZM8.93319 13.9121C8.00871 13.9121 7.24791 12.9382 7.24791 11.7545C7.24791 10.5708 8.00871 9.59692 8.93319 9.59692C9.85767 9.59692 10.6185 10.5708 10.6185 11.7545C10.6185 12.9382 9.85767 13.9121 8.93319 13.9121ZM15.1698 13.8996C14.254 13.8996 13.5004 12.92 13.5004 11.7291C13.5004 10.5382 14.254 9.55852 15.1698 9.55852C16.0857 9.55852 16.8393 10.5382 16.8393 11.7291C16.8393 12.92 16.0857 13.8996 15.1698 13.8996Z"
      fill="currentColor"/>
  </symbol>
  <symbol fill="none" xmlns="http://www.w3.org/2000/svg" viewBox="0 0 24 24" id="github">
    <path
      d="M8.54062 22.4812C8.8819 22.3344 9.12094 21.995 9.12094 21.6V19.008C9.12094 18.9134 9.12862 18.815 9.14062 18.7152C9.1339 18.7171 9.12766 18.7185 9.12094 18.72C9.12094 18.72 7.68094 18.72 7.39294 18.72C6.67294 18.72 6.04894 18.432 5.76094 17.856C5.42494 17.232 5.28094 16.176 4.41694 15.6C4.27294 15.504 4.36894 15.36 4.65694 15.36C4.94494 15.408 5.56894 15.792 5.95294 16.32C6.38494 16.848 6.81694 17.28 7.58494 17.28C8.7787 17.28 9.41854 17.22 9.8035 17.0136C10.2518 16.3468 10.8725 15.84 11.5209 15.84V15.828C8.8003 15.7406 7.06222 14.8363 6.25294 13.44C4.49374 13.4601 2.96206 13.6344 2.08798 13.7793C2.06014 13.6224 2.03614 13.4644 2.0155 13.3056C2.87806 13.1635 4.34014 12.995 6.0211 12.9628C5.96734 12.8304 5.92078 12.6945 5.88142 12.5553C4.19614 12.4699 2.74174 12.5366 1.95166 12.6019C1.94206 12.4425 1.9291 12.2836 1.92718 12.1224C2.7187 12.0576 4.13374 11.9928 5.77582 12.0691C5.7379 11.8291 5.71342 11.5838 5.71342 11.3284C5.71342 10.5124 6.00142 9.64844 6.52942 8.92844C6.28942 8.11244 5.95342 6.38444 6.62542 5.76044C7.92142 5.76044 8.83342 6.38444 9.26542 6.76844C10.0809 6.43196 10.9929 6.23996 12.0009 6.23996C13.0089 6.23996 13.9209 6.43196 14.6889 6.76796C15.1209 6.38396 16.0329 5.75996 17.3289 5.75996C18.0489 6.43196 17.6649 8.15996 17.4249 8.92796C17.9529 9.64796 18.2409 10.464 18.1929 11.328C18.1929 11.5603 18.1713 11.7844 18.1401 12.0043C19.8197 11.9217 21.2731 11.988 22.0781 12.0532C22.0771 12.215 22.0622 12.3729 22.0536 12.5328C21.2515 12.4665 19.7616 12.3984 18.0413 12.49C17.9985 12.6513 17.9467 12.8083 17.8853 12.9604C19.5873 12.9825 21.0845 13.1472 21.9883 13.2912C21.9677 13.4505 21.9437 13.6084 21.9158 13.7649C20.9981 13.618 19.4337 13.4462 17.6539 13.4376C16.8547 14.819 15.1483 15.72 12.4809 15.8251V15.84C13.7289 15.84 14.8809 17.712 14.8809 19.008V21.6C14.8809 21.995 15.12 22.3344 15.4613 22.4812C19.8585 21.0259 23.0409 16.8787 23.0409 12C23.0409 5.9126 18.0888 0.959961 12.0009 0.959961C5.9131 0.959961 0.960938 5.9126 0.960938 12C0.960938 16.8787 4.14334 21.0259 8.54062 22.4812Z"
      fill="currentColor"/>
  </symbol>
  <symbol fill="none" xmlns="http://www.w3.org/2000/svg" viewBox="0 0 24 24" id="linkedin">
    <path
      d="M21 4.32353V19.6765C21 20.0275 20.8606 20.3641 20.6123 20.6123C20.3641 20.8606 20.0275 21 19.6765 21H4.32353C3.97251 21 3.63586 20.8606 3.38765 20.6123C3.13944 20.3641 3 20.0275 3 19.6765V4.32353C3 3.97251 3.13944 3.63586 3.38765 3.38765C3.63586 3.13944 3.97251 3 4.32353 3H19.6765C20.0275 3 20.3641 3.13944 20.6123 3.38765C20.8606 3.63586 21 3.97251 21 4.32353ZM8.29412 9.88235H5.64706V18.3529H8.29412V9.88235ZM8.53235 6.97059C8.53375 6.77036 8.49569 6.57182 8.42035 6.3863C8.34502 6.20078 8.23387 6.03191 8.09328 5.88935C7.95268 5.74678 7.78537 5.6333 7.60091 5.5554C7.41646 5.47749 7.21846 5.43668 7.01824 5.43529H6.97059C6.5634 5.43529 6.17289 5.59705 5.88497 5.88497C5.59705 6.17289 5.43529 6.5634 5.43529 6.97059C5.43529 7.37777 5.59705 7.76828 5.88497 8.05621C6.17289 8.34413 6.5634 8.50588 6.97059 8.50588C7.17083 8.51081 7.37008 8.47623 7.55696 8.40413C7.74383 8.33202 7.91467 8.2238 8.0597 8.08565C8.20474 7.94749 8.32113 7.78212 8.40223 7.59897C8.48333 7.41582 8.52755 7.21848 8.53235 7.01824V6.97059ZM18.3529 13.2071C18.3529 10.6606 16.7329 9.67059 15.1235 9.67059C14.5966 9.6442 14.0719 9.75644 13.6019 9.9961C13.1318 10.2358 12.7328 10.5945 12.4447 11.0365H12.3706V9.88235H9.88235V18.3529H12.5294V13.8476C12.4911 13.3862 12.6365 12.9283 12.9339 12.5735C13.2313 12.2186 13.6567 11.9954 14.1176 11.9524H14.2182C15.06 11.9524 15.6847 12.4818 15.6847 13.8159V18.3529H18.3318L18.3529 13.2071Z"
      fill="currentColor"/>
  </symbol>
  <symbol fill="none" xmlns="http://www.w3.org/2000/svg" viewBox="0 0 24 24" id="facebook">
    <path
      d="M22 12.0607C22 6.504 17.5233 2 12 2C6.47667 2 2 6.504 2 12.0607C2 17.0833 5.656 21.2453 10.4373 22V14.9693H7.89867V12.06H10.4373V9.844C10.4373 7.32267 11.93 5.92933 14.2147 5.92933C15.308 5.92933 16.4533 6.126 16.4533 6.126V8.602H15.1913C13.9493 8.602 13.5627 9.378 13.5627 10.174V12.0607H16.336L15.8927 14.9687H13.5627V22C18.344 21.2453 22 17.0833 22 12.0607Z"
      fill="currentColor"/>
  </symbol>
  <symbol fill="none" xmlns="http://www.w3.org/2000/svg" viewBox="0 0 24 24" id="twitter">
    <path
      d="M18.244 2.25H21.552L14.325 10.51L22.827 21.75H16.17L10.956 14.933L4.99003 21.75H1.68003L9.41003 12.915L1.25403 2.25H8.08003L12.793 8.481L18.244 2.25ZM17.083 19.77H18.916L7.08403 4.126H5.11703L17.083 19.77Z"
      fill="currentColor"/>
  </symbol>
  <symbol fill="none" xmlns="http://www.w3.org/2000/svg" viewBox="0 0 24 24" id="telegram">
    <path
      d="M22.1436 3.14529C21.7836 2.84001 21.2182 2.79633 20.6336 3.03105H20.6326C20.0177 3.27777 3.22733 10.4797 2.54381 10.7739C2.41949 10.8171 1.33373 11.2223 1.44557 12.1247C1.54541 12.9383 2.41805 13.2752 2.52461 13.3141L6.79325 14.7757C7.07645 15.7184 8.12045 19.1965 8.35133 19.9395C8.49533 20.4027 8.73005 21.0114 9.14141 21.1367C9.50237 21.2759 9.86141 21.1487 10.0937 20.9663L12.7035 18.5456L16.9164 21.8312L17.0168 21.8912C17.3028 22.0179 17.5769 22.0813 17.8385 22.0813C18.0406 22.0813 18.2345 22.0434 18.4198 21.9675C19.051 21.7083 19.3035 21.1069 19.3299 21.0387L22.4768 4.68177C22.6688 3.80817 22.4019 3.36369 22.1436 3.14529ZM10.5579 15.3603L9.11789 19.2003L7.67789 14.4003L18.7179 6.24033L10.5579 15.3603Z"
      fill="currentColor"/>
  </symbol>
  <symbol fill="none" xmlns="http://www.w3.org/2000/svg" viewBox="0 0 24 24" id="coingecko">
    <g clip-path="url(#clip0_3635_2636)">
      <path
        d="M11.9246 -0.0222223C5.29568 0.00888876 -0.0509892 5.40444 -0.0221003 12.0311C0.00901083 18.6578 5.40457 24.0067 12.0312 23.9778C18.6579 23.9467 24.0068 18.5511 23.9779 11.9244C23.9468 5.29556 18.5512 -0.0511112 11.9246 -0.0222223ZM10.4046 11.3889C9.22012 11.3889 8.2579 10.4289 8.2579 9.24444C8.2579 8.06 9.2179 7.1 10.4046 7.1C11.589 7.1 12.549 8.06 12.549 9.24444C12.549 10.4289 11.589 11.3889 10.4046 11.3889ZM12.1157 13.7089L12.1268 13.6956L12.1379 13.6822C12.7512 14.0778 13.449 14.2156 14.1468 14.2378C14.8468 14.2556 15.5579 14.2044 16.2601 14.0622C16.9601 13.9178 17.649 13.7022 18.3135 13.4267C18.6868 13.2733 19.0579 13.1044 19.4112 12.9067C19.4135 12.9044 19.4157 12.9044 19.4179 12.9022C19.6379 12.7689 19.8535 12.6311 20.0646 12.4867C20.1112 12.4533 20.1557 12.42 20.1979 12.3844L20.2023 12.3911L20.2201 12.4133C19.6801 12.9044 19.0379 13.2689 18.3846 13.5911C17.7246 13.9022 17.0357 14.1578 16.3246 14.3422C15.6157 14.5244 14.8757 14.6644 14.1268 14.5956C13.389 14.5267 12.6112 14.2689 12.1157 13.7089ZM17.6223 11.3889C17.6223 11.1311 17.829 10.9244 18.0846 10.9222C18.3423 10.9222 18.549 11.1289 18.5512 11.3844C18.5512 11.64 18.3446 11.8511 18.089 11.8511C17.8335 11.8533 17.6223 11.6467 17.6223 11.3889ZM13.9468 21.9C13.4823 18.6511 16.3179 16.4711 17.9179 14.8444C18.2801 14.4756 18.8423 13.9667 19.3646 13.4267C21.4401 11.4867 21.8535 9.16667 17.6046 8.00667C16.8001 7.77333 15.9646 7.44222 15.1201 7.10889C15.0935 7.03111 15.0623 6.95778 15.029 6.88889C14.9312 6.72222 14.7623 6.52889 14.5046 6.31111C13.9512 5.83111 12.9157 5.84444 12.0201 6.05556C11.029 5.82222 10.0535 5.74 9.11346 5.96444C5.00457 7.09556 4.34457 9.1 4.18457 11.5156C3.96679 14.1244 4.84012 16.0689 3.85123 18.2911C2.6179 16.5111 1.89123 14.3556 1.88234 12.0267C1.85568 5.9 5.80012 1.90889 11.929 1.88222C18.0579 1.85556 22.0468 5.8 22.0757 11.9289C22.0979 17.4022 19.1557 20.9689 13.9468 21.9Z"
        fill="currentColor"/>
      <path
        d="M11.9135 9.2645C11.9135 10.0978 11.238 10.7734 10.4046 10.7734C9.57131 10.7734 8.89575 10.0978 8.89575 9.2645C8.89575 8.43117 9.57131 7.75562 10.4046 7.75562C11.238 7.75562 11.9135 8.43117 11.9135 9.2645Z"
        fill="currentColor"/>
    </g>
    <defs>
      <clipPath id="clip0_3635_2636">
        <rect width="24" height="24" fill="white"/>
      </clipPath>
    </defs>
  </symbol>
  <symbol fill="none" xmlns="http://www.w3.org/2000/svg" viewBox="0 0 24 24" id="coinmarketcap">
    <g clip-path="url(#clip0_3635_2634)">
      <path fill-rule="evenodd" clip-rule="evenodd"
            d="M20.8689 14.3415C20.444 14.606 19.9438 14.6388 19.5635 14.4275C19.0805 14.1588 18.8149 13.5296 18.8149 12.6544V10.0361C18.8149 8.77171 18.3075 7.872 17.4591 7.62907C16.0212 7.21639 14.9399 8.94966 14.5335 9.60058L11.9977 13.6513V8.70029C11.9691 7.56117 11.5936 6.87981 10.8807 6.67434C10.4089 6.53854 9.70302 6.59298 9.01739 7.62673L3.33614 16.6144C2.57556 15.1919 2.17907 13.6078 2.18112 12C2.18112 6.58595 6.58496 2.18166 11.9977 2.18166C17.4103 2.18166 21.8135 6.58595 21.8135 12C21.8135 12.0094 21.8159 12.0176 21.8165 12.0263C21.8165 12.0357 21.8148 12.0439 21.8154 12.0533C21.8665 13.1017 21.5219 13.9352 20.8689 14.3415ZM23.9947 12.0006V11.9731L23.9941 11.9461C23.9638 5.35259 18.5944 0 11.997 0C5.38239 0 0 5.38302 0 12C0 18.6164 5.38239 24 11.9977 24C15.0331 24 17.9302 22.8632 20.1541 20.7998C20.5962 20.39 20.6223 19.6999 20.2123 19.2585C20.1159 19.1537 19.9991 19.0689 19.8689 19.0091C19.7387 18.9493 19.5978 18.9156 19.4542 18.9102C19.3107 18.9047 19.1675 18.9276 19.033 18.9773C18.8985 19.0271 18.7755 19.1028 18.6711 19.2C16.8685 20.8818 14.4802 21.8188 11.9977 21.8183C9.09939 21.8183 6.49165 20.5545 4.69318 18.5502L9.81653 10.4453V14.1817C9.81653 15.9764 10.5229 16.5565 11.1153 16.7262C11.7083 16.896 12.6143 16.7801 13.5656 15.2581L16.3836 10.7573C16.474 10.6121 16.5571 10.4868 16.6332 10.3785V12.6544C16.6332 14.3321 17.3152 15.6738 18.5042 16.3346C19.576 16.9305 20.9235 16.8767 22.0215 16.1941C23.3524 15.3659 24.0695 13.8398 23.9947 12.0006Z"
            fill="currentColor"/>
    </g>
    <defs>
      <clipPath id="clip0_3635_2634">
        <rect width="24" height="24" fill="white"/>
      </clipPath>
    </defs>
  </symbol>

  <!--Logos-->
  <symbol fill="none" xmlns="http://www.w3.org/2000/svg" viewBox="0 0 138 90" id="logo">
    <path
      d="M27.6308 33.2962L18.927 0.361816H12.7796L27.6308 56.5574V78.0037L7.1139 0.361816H0.966522L24.5571 89.6343H27.6308H30.7026H33.7763V0.361816H27.6308V33.2962Z"
      fill="currentColor"/>
    <path
      d="M137.041 89.6343L113.45 0.361816H110.377H107.303H104.229V89.6324H110.377L126.601 73.3931L130.893 89.6324H137.041V89.6343ZM121.148 52.7474L110.378 63.5212V11.9924L121.148 52.7474ZM110.377 80.9306V72.2174L122.964 59.6249L124.785 66.5156L110.377 80.9306Z"
      fill="currentColor"/>
    <path
      d="M46.7298 0.361816H43.6561H40.5824V89.6324H46.7298L62.9548 73.3931L67.2467 89.6324H73.3941L49.8016 0.361816H46.7298ZM57.499 52.7474L46.7298 63.5212V11.9924L57.499 52.7474ZM46.7298 80.9306V72.2174L59.3169 59.6249L61.1387 66.5156L46.7298 80.9306Z"
      fill="currentColor"/>
    <path
      d="M98.9113 55.5206L84.3357 0.361877H81.262H78.1883H75.1146V89.6325H81.262V73.0781L86.909 67.4288L92.7771 89.6325L98.9113 89.5875L91.7706 62.565L94.0291 60.3056L98.9113 55.5206ZM81.262 64.3819V11.9925L92.2111 53.4281L81.262 64.3819Z"
      fill="currentColor"/>
  </symbol>
  <symbol fill="none" xmlns="http://www.w3.org/2000/svg" viewBox="0 0 161 38" id="gear-logo">
    <path
      d="M53.918 0.308594C52.5999 0.744118 51.2717 1.15939 49.913 1.52401C36.3163 5.16519 22.5877 4.47139 10.1671 0.318722L7.75391 15.6887L12.636 16.9952L17.1277 8.75573C18.3343 8.99881 19.5459 9.21151 20.7626 9.39889L22.1618 18.6715L27.196 19.1121L30.1871 10.2244C31.4139 10.2547 32.6458 10.2547 33.8778 10.2193L36.8688 19.1121L41.903 18.6715L43.3073 9.38369C44.5139 9.20138 45.7255 8.98362 46.9321 8.74054L51.4339 16.9952L56.316 15.6887L53.918 0.308594Z"
      fill="currentColor"/>
    <path
      d="M44.141 19.152L39.6391 27.4067C38.4275 27.1636 37.2209 26.9459 36.0143 26.7635L34.61 17.4757L29.5759 17.0352L26.5848 25.9279C25.3478 25.8976 24.1209 25.8976 22.8941 25.9229L19.903 17.0352L14.8688 17.4757L13.4696 26.7483C12.2479 26.9307 11.0362 27.1484 9.8347 27.3915L5.343 19.152L0.460938 20.4586L2.87408 35.8285C15.2896 31.6708 29.0233 30.982 42.6201 34.6232C43.9787 34.9879 45.307 35.3981 46.6251 35.8386L49.0382 20.4636L44.141 19.152Z"
      fill="currentColor"/>
    <path
      d="M82.3195 9.89413C82.3195 9.89413 80.1446 7.04297 75.5008 7.04297C70.857 7.04297 64.7734 9.6865 64.7734 18.0729C64.7734 26.4643 70.857 29.1838 75.5008 29.1838C80.1446 29.1838 81.63 26.7986 82.3195 25.6237C82.3195 30.7233 77.6351 33.2048 71.7138 30.2777L69.0674 36.0053C76.6922 39.8542 87.9569 38.9679 87.9569 25.6591V7.56458H83.1103L82.3195 9.89413ZM76.6922 23.1979C74.8113 23.1979 71.9723 21.9014 71.9723 18.0779C71.9723 14.2544 74.8113 12.958 76.6922 12.958C78.573 12.958 81.412 14.2544 81.412 18.0779C81.412 21.9014 78.573 23.1979 76.6922 23.1979Z"
      fill="currentColor"/>
    <path
      d="M150.553 11.0127L149.382 7.56902H144.535V28.6767H151.257C151.257 28.6767 151.257 20.9994 151.257 18.052C151.257 14.3753 154.451 12.6282 157.828 13.9348L160.606 7.92352C153.519 4.79382 150.553 11.0127 150.553 11.0127Z"
      fill="currentColor"/>
    <path
      d="M139.578 7.56458H134.731L133.941 9.89413C133.941 9.89413 131.766 7.04297 127.122 7.04297C122.478 7.04297 116.395 10.1524 116.395 18.0729C116.395 25.9326 122.478 29.1838 127.122 29.1838C132.572 29.1838 133.941 25.6236 133.941 25.6236V28.6672H139.578V25.6642V7.56458ZM128.308 23.1979C126.427 23.1979 123.588 21.9014 123.588 18.0779C123.588 14.2544 126.427 12.958 128.308 12.958C130.189 12.958 133.028 14.2544 133.028 18.0779C133.028 21.9014 130.189 23.1979 128.308 23.1979Z"
      fill="currentColor"/>
    <path
      d="M103.122 6.59375C94.8585 6.59375 90.5898 12.4531 90.5898 17.9174C90.5898 23.3817 94.4225 29.8943 102.519 29.8943C110.615 29.8943 113.373 24.6072 113.799 23.7564L109.363 20.8648C108.496 22.2473 106.372 23.8982 103.644 23.8982C101.419 23.8982 98.9193 22.4549 98.0777 19.938H113.956C114.422 13.9217 111.386 6.59375 103.122 6.59375ZM98.3819 15.365C99.2032 13.6584 100.82 12.5341 102.934 12.5341C106.047 12.5341 107.061 15.365 107.061 15.365H98.3819Z"
      fill="currentColor"/>
  </symbol>
  <symbol fill="none" xmlns="http://www.w3.org/2000/svg" viewBox="0 0 59 18" id="logo-academy">
    <path d="M6.73583 13.6005L3.854 4.64821L0.972177 13.6005H0.00854492L3.854 1.65674L7.69946 13.6005H6.73583Z"
          fill="currentColor"/>
    <path d="M54.9941 10.7295L51.3074 1.927H52.3866L54.9941 8.15554L57.6039 1.927H58.6809L54.9941 10.7295Z"
          fill="currentColor"/>
    <path d="M6.44534 10.7784H1.2644V11.6233H6.44534V10.7784Z" fill="currentColor"/>
    <path d="M24.7632 13.6005L21.8813 4.64821L18.9995 13.6005H18.0359L21.8813 1.65674L25.7268 13.6005H24.7632Z"
          fill="currentColor"/>
    <path d="M24.4693 10.7784H19.2883V11.6233H24.4693V10.7784Z" fill="currentColor"/>
    <path
      d="M28.6416 13.5514H26.873V1.97852H28.6416C30.4374 1.97852 33.8339 3.18689 33.8339 7.76497C33.8361 12.009 30.7298 13.5514 28.6416 13.5514ZM27.7845 12.5665H28.6439C29.3626 12.5665 30.4487 12.3062 31.342 11.5743C32.3941 10.7122 32.9269 9.43262 32.9269 7.76497C32.9269 3.01988 28.8184 2.96339 28.6439 2.96339H27.7845V12.5665Z"
      fill="currentColor"/>
    <path d="M39.1976 13.6153H35.2319V1.93921H39.1976V2.92409H36.1411V12.6304H39.1976V13.6153Z" fill="currentColor"/>
    <path d="M38.9864 6.57874H35.6829V7.56361H38.9864V6.57874Z" fill="currentColor"/>
    <path
      d="M50.4737 13.6348H49.5645V4.84463L45.5784 11.6307L41.5901 4.84463V13.6348H40.6809V1.46265L45.5784 9.79602L50.4737 1.46265V13.6348Z"
      fill="currentColor"/>
    <path d="M55.45 9.44238H54.5408V13.6005H55.45V9.44238Z" fill="currentColor"/>
    <path
      d="M15.5711 16.6657C11.8254 16.6657 8.78031 13.3648 8.78031 9.30986C8.78031 5.25247 11.8277 1.95399 15.5711 1.95399C17.1288 1.95399 18.6479 2.53853 19.8541 3.602L20.1693 2.61958C18.8474 1.55366 17.2263 0.969116 15.5711 0.969116C11.3243 0.969116 7.87109 4.71214 7.87109 9.30986C7.87109 13.91 11.3266 17.6506 15.5711 17.6506C17.3328 17.6506 19.056 16.9899 20.421 15.7889L19.8473 15.0251C18.6434 16.0836 17.1242 16.6657 15.5711 16.6657Z"
      fill="currentColor"/>
    <path
      d="M15.5433 10.8424C16.3246 10.8424 16.9581 10.1562 16.9581 9.3098C16.9581 8.46338 16.3246 7.77722 15.5433 7.77722C14.7619 7.77722 14.1284 8.46338 14.1284 9.3098C14.1284 10.1562 14.7619 10.8424 15.5433 10.8424Z"
      fill="currentColor"/>
  </symbol>
  <symbol fill="none" xmlns="http://www.w3.org/2000/svg" viewBox="0 0 239 23" id="powered-by-gear">
    <g clip-path="url(#clip0_91_715)">
      <path
        d="M176.256 0.312988C175.485 0.565868 174.702 0.807753 173.908 1.02765C165.949 3.14964 157.901 2.74283 150.636 0.312988L149.225 9.3067L152.08 10.0763L154.715 5.26063C155.42 5.40356 156.126 5.52451 156.842 5.63445L157.658 11.0549L160.602 11.3077L162.355 6.10723C163.071 6.12922 163.799 6.12922 164.515 6.10723L166.268 11.3077L169.212 11.0549L170.028 5.62346C170.733 5.51351 171.439 5.39257 172.155 5.24964L174.79 10.0763L177.645 9.3177L176.256 0.312988Z"
        fill="currentColor"
      />
      <path
        d="M170.524 11.3297L167.889 16.1564C167.183 16.0135 166.478 15.8926 165.761 15.7826L164.945 10.3512L161.991 10.0983L160.238 15.2988C159.51 15.2769 158.794 15.2769 158.077 15.2988L156.324 10.0983L153.381 10.3512L152.565 15.7716C151.848 15.8816 151.143 16.0025 150.437 16.1454L147.803 11.3297L144.947 12.0994L146.358 21.0821C153.623 18.6522 161.671 18.2454 169.631 20.3784C170.424 20.5873 171.207 20.8292 171.979 21.0931L173.39 12.0994L170.524 11.3297Z"
        fill="currentColor"
      />
      <path
        d="M192.65 5.9204C192.65 5.9204 191.371 4.24919 188.659 4.24919C185.936 4.24919 182.375 5.79945 182.375 10.7031C182.375 15.6068 185.936 17.201 188.659 17.201C191.382 17.201 192.253 15.8047 192.65 15.123C192.65 18.1026 189.905 19.5539 186.443 17.8387L184.889 21.1921C189.353 23.446 195.946 22.9293 195.946 15.145V4.55704H193.113L192.65 5.9204ZM189.353 13.6937C188.251 13.6937 186.586 12.9351 186.586 10.7031C186.586 8.47118 188.251 7.71254 189.353 7.71254C190.456 7.71254 192.121 8.47118 192.121 10.7031C192.121 12.9351 190.456 13.6937 189.353 13.6937Z"
        fill="currentColor"
      />
      <path
        d="M232.613 6.56906L231.929 4.55702H229.096V16.8931H233.032V10.6811C233.032 8.52613 234.906 7.51461 236.879 8.27325L238.511 4.76592C234.355 2.92979 232.613 6.56906 232.613 6.56906Z"
        fill="currentColor"
      />
      <path
        d="M226.186 4.55704H223.352L222.878 5.9204C222.878 5.9204 221.6 4.24919 218.888 4.24919C216.165 4.24919 212.604 6.06333 212.604 10.7031C212.604 15.2989 216.165 17.201 218.888 17.201C222.074 17.201 222.878 15.123 222.878 15.123V16.9042H226.186V15.145V4.55704ZM219.582 13.6937C218.48 13.6937 216.815 12.9351 216.815 10.7031C216.815 8.47118 218.48 7.71254 219.582 7.71254C220.685 7.71254 222.349 8.47118 222.349 10.7031C222.349 12.9351 220.685 13.6937 219.582 13.6937Z"
        fill="currentColor"
      />
      <path
        d="M204.843 3.97433C200.003 3.97433 197.5 7.39371 197.5 10.5932C197.5 13.7927 199.749 17.5968 204.49 17.5968C209.23 17.5968 210.84 14.5073 211.093 14.0126L208.492 12.3194C207.985 13.133 206.739 14.0895 205.14 14.0895C203.839 14.0895 202.373 13.2429 201.877 11.7696H211.193C211.457 8.26229 209.682 3.97433 204.843 3.97433ZM202.064 9.09789C202.55 8.09737 203.487 7.43768 204.732 7.43768C206.551 7.43768 207.147 9.09789 207.147 9.09789H202.064Z"
        fill="currentColor"
      />
    </g>
    <path
      d="M0.500015 17.4714V0.478668H7.72012C8.5303 0.478668 9.26899 0.646202 9.9362 0.98127C10.6193 1.30038 11.2071 1.73916 11.6995 2.29761C12.192 2.8401 12.5732 3.45439 12.8433 4.14048C13.1134 4.82657 13.2484 5.52862 13.2484 6.24662C13.2484 7.21991 13.018 8.14534 12.5574 9.02289C12.1126 9.90045 11.4851 10.6185 10.6749 11.1769C9.8806 11.7194 8.93539 11.9906 7.83927 11.9906H4.40793V17.4714H0.500015ZM4.40793 8.56816H7.60098C7.90281 8.56816 8.18081 8.4804 8.43499 8.30489C8.68916 8.12938 8.89568 7.86611 9.05453 7.51509C9.21339 7.16407 9.29282 6.73326 9.29282 6.22268C9.29282 5.69615 9.19751 5.26535 9.00688 4.93028C8.83213 4.57926 8.60179 4.32397 8.31584 4.16441C8.04578 4.00486 7.75984 3.92508 7.45801 3.92508H4.40793V8.56816Z"
      fill="currentColor"
    />
    <path
      d="M20.7379 17.7107C19.6735 17.7107 18.7204 17.5352 17.8784 17.1842C17.0524 16.8332 16.3534 16.3545 15.7815 15.7482C15.2096 15.1419 14.7727 14.4478 14.4709 13.666C14.185 12.8841 14.042 12.0624 14.042 11.2008C14.042 10.3233 14.185 9.49358 14.4709 8.71176C14.7727 7.92993 15.2096 7.23587 15.7815 6.62955C16.3534 6.02324 17.0524 5.54457 17.8784 5.19355C18.7204 4.84253 19.6735 4.66701 20.7379 4.66701C21.8022 4.66701 22.7474 4.84253 23.5735 5.19355C24.3996 5.54457 25.0985 6.02324 25.6704 6.62955C26.2423 7.23587 26.6792 7.92993 26.981 8.71176C27.2828 9.49358 27.4338 10.3233 27.4338 11.2008C27.4338 12.0624 27.2828 12.8841 26.981 13.666C26.6792 14.4478 26.2423 15.1419 25.6704 15.7482C25.0985 16.3545 24.3996 16.8332 23.5735 17.1842C22.7474 17.5352 21.8022 17.7107 20.7379 17.7107ZM17.9499 11.2008C17.9499 11.855 18.0691 12.4294 18.3073 12.924C18.5615 13.4187 18.8951 13.8016 19.3082 14.0728C19.7212 14.3441 20.1978 14.4797 20.7379 14.4797C21.2621 14.4797 21.7307 14.3441 22.1438 14.0728C22.5727 13.7856 22.9063 13.3947 23.1446 12.9001C23.3829 12.4055 23.502 11.8391 23.502 11.2008C23.502 10.5467 23.3829 9.97225 23.1446 9.47763C22.9063 8.983 22.5727 8.60007 22.1438 8.32882C21.7307 8.05758 21.2621 7.92196 20.7379 7.92196C20.1978 7.92196 19.7212 8.05758 19.3082 8.32882C18.8951 8.60007 18.5615 8.983 18.3073 9.47763C18.0691 9.97225 17.9499 10.5467 17.9499 11.2008Z"
      fill="currentColor"
    />
    <path
      d="M44.2997 4.90635H47.9216L42.7508 17.4714H39.6054L37.6991 12.3496L35.7928 17.4714H32.6474L27.4766 4.90635H31.0747L34.4346 13.8574L35.626 10.3632L33.3861 4.90635H36.5077L37.6991 8.68783L38.8905 4.90635H41.9883L39.7722 10.3632L40.9636 13.8574L44.2997 4.90635Z"
      fill="currentColor"
    />
    <path
      d="M54.6665 17.7107C53.6021 17.7107 52.6569 17.5432 51.8308 17.2081C51.0048 16.8571 50.2979 16.3864 49.7101 15.796C49.1382 15.2057 48.7013 14.5276 48.3995 13.7617C48.0977 12.9799 47.9468 12.1661 47.9468 11.3205C47.9468 10.1079 48.2089 9.00694 48.7331 8.01769C49.2732 7.01249 50.0437 6.20673 51.0445 5.60042C52.0453 4.97815 53.2526 4.66701 54.6665 4.66701C56.0803 4.66701 57.2797 4.97017 58.2646 5.57648C59.2654 6.1828 60.0279 6.98058 60.5522 7.96982C61.0764 8.94311 61.3385 10.0042 61.3385 11.153C61.3385 11.3763 61.3226 11.5997 61.2909 11.8231C61.275 12.0305 61.2591 12.214 61.2432 12.3736H51.9977C52.0453 12.932 52.1962 13.4027 52.4504 13.7856C52.7205 14.1686 53.062 14.4638 53.475 14.6712C53.8881 14.8626 54.3249 14.9584 54.7856 14.9584C55.3575 14.9584 55.8897 14.8228 56.3821 14.5515C56.8905 14.2803 57.24 13.9133 57.4306 13.4506L60.6713 14.36C60.3536 15.0142 59.9008 15.5966 59.3131 16.1072C58.7412 16.6018 58.0581 16.9927 57.2638 17.2799C56.4854 17.5671 55.6196 17.7107 54.6665 17.7107ZM51.9023 10.0281H57.3353C57.2717 9.50156 57.1208 9.04683 56.8825 8.66389C56.6443 8.265 56.3265 7.96185 55.9294 7.75442C55.5322 7.53104 55.0954 7.41936 54.6188 7.41936C54.1264 7.41936 53.6816 7.53104 53.2844 7.75442C52.9031 7.96185 52.5934 8.265 52.3551 8.66389C52.1168 9.04683 51.9659 9.50156 51.9023 10.0281Z"
      fill="currentColor"
    />
    <path
      d="M71.0014 8.18522C70.0801 8.18522 69.2461 8.3368 68.4994 8.63996C67.7528 8.92716 67.2127 9.35796 66.8791 9.93236V17.4714H63.0665V4.90635H66.5693V7.44329C66.9982 6.59764 67.5542 5.93548 68.2373 5.45682C68.9204 4.97815 69.6353 4.73084 70.3819 4.71488C70.5566 4.71488 70.6837 4.71488 70.7632 4.71488C70.8585 4.71488 70.9379 4.72286 71.0014 4.73881V8.18522Z"
      fill="currentColor"
    />
    <path
      d="M78.4952 17.7107C77.4309 17.7107 76.4857 17.5432 75.6596 17.2081C74.8335 16.8571 74.1266 16.3864 73.5388 15.796C72.9669 15.2057 72.5301 14.5276 72.2283 13.7617C71.9264 12.9799 71.7755 12.1661 71.7755 11.3205C71.7755 10.1079 72.0376 9.00694 72.5619 8.01769C73.102 7.01249 73.8724 6.20673 74.8732 5.60042C75.8741 4.97815 77.0814 4.66701 78.4952 4.66701C79.909 4.66701 81.1084 4.97017 82.0934 5.57648C83.0942 6.1828 83.8567 6.98058 84.3809 7.96982C84.9051 8.94311 85.1673 10.0042 85.1673 11.153C85.1673 11.3763 85.1514 11.5997 85.1196 11.8231C85.1037 12.0305 85.0878 12.214 85.0719 12.3736H75.8264C75.8741 12.932 76.025 13.4027 76.2791 13.7856C76.5492 14.1686 76.8907 14.4638 77.3038 14.6712C77.7168 14.8626 78.1537 14.9584 78.6144 14.9584C79.1862 14.9584 79.7184 14.8228 80.2109 14.5515C80.7192 14.2803 81.0687 13.9133 81.2593 13.4506L84.5001 14.36C84.1823 15.0142 83.7296 15.5966 83.1418 16.1072C82.5699 16.6018 81.8868 16.9927 81.0925 17.2799C80.3141 17.5671 79.4484 17.7107 78.4952 17.7107ZM75.7311 10.0281H81.164C81.1005 9.50156 80.9496 9.04683 80.7113 8.66389C80.473 8.265 80.1553 7.96185 79.7581 7.75442C79.361 7.53104 78.9241 7.41936 78.4476 7.41936C77.9551 7.41936 77.5103 7.53104 77.1132 7.75442C76.7319 7.96185 76.4221 8.265 76.1838 8.66389C75.9455 9.04683 75.7946 9.50156 75.7311 10.0281Z"
      fill="currentColor"
    />
    <path
      d="M86.1804 11.1769C86.1804 9.94832 86.4186 8.84738 86.8952 7.87409C87.3718 6.88484 88.0231 6.10302 88.8492 5.52862C89.6752 4.95421 90.6284 4.66701 91.7086 4.66701C92.5823 4.66701 93.3766 4.88241 94.0915 5.31322C94.8064 5.72806 95.3465 6.27853 95.7119 6.96462V0H99.5244V13.2112C99.5244 13.5942 99.588 13.8654 99.7151 14.025C99.8422 14.1686 100.049 14.2563 100.335 14.2882V17.4714C99.6674 17.599 99.1273 17.6629 98.7143 17.6629C98.063 17.6629 97.5308 17.5193 97.1177 17.2321C96.7206 16.9449 96.4744 16.546 96.3791 16.0354L96.3076 15.3892C95.8628 16.171 95.2591 16.7534 94.4966 17.1363C93.7341 17.5193 92.9318 17.7107 92.0899 17.7107C91.232 17.7107 90.4378 17.5512 89.707 17.2321C88.9921 16.897 88.3647 16.4343 87.8245 15.8439C87.3003 15.2536 86.8952 14.5595 86.6093 13.7617C86.3233 12.9639 86.1804 12.1023 86.1804 11.1769ZM95.7357 12.7326V10.0999C95.5768 9.6691 95.3465 9.29414 95.0446 8.97503C94.7587 8.65591 94.4251 8.40062 94.0438 8.20916C93.6785 8.01769 93.3052 7.92196 92.9239 7.92196C92.5109 7.92196 92.1296 8.00971 91.7801 8.18522C91.4465 8.36074 91.1526 8.60805 90.8984 8.92716C90.6443 9.23032 90.4457 9.58134 90.3027 9.98023C90.1756 10.3791 90.1121 10.8019 90.1121 11.2487C90.1121 11.7114 90.1836 12.1422 90.3266 12.5411C90.4854 12.924 90.6999 13.2671 90.9699 13.5702C91.24 13.8574 91.5577 14.0808 91.9231 14.2404C92.2885 14.3999 92.6856 14.4797 93.1145 14.4797C93.3846 14.4797 93.6467 14.4398 93.9009 14.36C94.155 14.2643 94.3933 14.1446 94.6157 14.001C94.854 13.8574 95.0685 13.674 95.2591 13.4506C95.4497 13.2272 95.6086 12.9879 95.7357 12.7326Z"
      fill="currentColor"
    />
    <path
      d="M115.554 17.7107C114.601 17.7107 113.767 17.5113 113.052 17.1124C112.337 16.6975 111.773 16.1231 111.36 15.3892V17.4714H108.048V0H111.86V6.96462C112.274 6.23066 112.822 5.66424 113.505 5.26535C114.204 4.86646 115.022 4.66701 115.959 4.66701C116.753 4.66701 117.476 4.84253 118.127 5.19355C118.795 5.52862 119.367 5.99931 119.843 6.60562C120.336 7.19598 120.717 7.89005 120.987 8.68783C121.257 9.46965 121.392 10.3233 121.392 11.2487C121.392 12.1582 121.241 13.0038 120.939 13.7856C120.653 14.5675 120.248 15.2536 119.724 15.8439C119.2 16.4343 118.58 16.897 117.865 17.2321C117.166 17.5512 116.396 17.7107 115.554 17.7107ZM114.482 14.4797C114.911 14.4797 115.308 14.3999 115.673 14.2404C116.054 14.0649 116.38 13.8335 116.65 13.5463C116.92 13.2591 117.127 12.924 117.27 12.5411C117.413 12.1422 117.484 11.7114 117.484 11.2487C117.484 10.6583 117.365 10.1079 117.127 9.59729C116.888 9.08671 116.555 8.67985 116.126 8.37669C115.713 8.07353 115.228 7.92196 114.672 7.92196C114.275 7.92196 113.894 8.01769 113.528 8.20916C113.163 8.40062 112.837 8.66389 112.552 8.99896C112.266 9.31807 112.035 9.68505 111.86 10.0999V12.7326C111.988 13.0038 112.146 13.2511 112.337 13.4745C112.528 13.6819 112.734 13.8574 112.957 14.001C113.195 14.1446 113.441 14.2643 113.695 14.36C113.965 14.4398 114.227 14.4797 114.482 14.4797Z"
      fill="currentColor"
    />
    <path
      d="M122.943 19.3621C123.261 19.4579 123.555 19.5297 123.825 19.5775C124.111 19.6413 124.365 19.6733 124.587 19.6733C124.889 19.6733 125.143 19.6015 125.35 19.4579C125.572 19.3302 125.763 19.0989 125.922 18.7638C126.081 18.4447 126.223 18.0139 126.351 17.4714L121.585 4.90635H125.517L128.424 13.5463L130.902 4.90635H134.5L129.734 19.5057C129.512 20.1918 129.17 20.7981 128.71 21.3247C128.249 21.8512 127.693 22.2581 127.042 22.5453C126.39 22.8484 125.675 23 124.897 23C124.563 23 124.238 22.9681 123.92 22.9043C123.602 22.8564 123.277 22.7686 122.943 22.641V19.3621Z"
      fill="currentColor"
    />
    <defs>
      <clipPath id="clip0_91_715">
        <rect
          width="93.5638"
          height="22.0335"
          fill="white"
          transform="translate(144.936 0.312988)"
        />
      </clipPath>
    </defs>
  </symbol>
  <symbol fill="none" xmlns="http://www.w3.org/2000/svg" viewBox="0 0 124 50" id="powered-by-gear-vertical">
    <g clip-path="url(#clip0_5808_4993)">
      <path
        d="M47.3468 29.5565C46.6399 29.7905 45.9228 30.0144 45.1957 30.2179C37.9042 32.1817 30.532 31.8052 23.8767 29.5565L22.584 37.88L25.1997 38.5923L27.6133 34.1354C28.2597 34.2677 28.906 34.3796 29.5625 34.4814L30.3098 39.4979L33.0062 39.7319L34.612 34.9189C35.2684 34.9393 35.9349 34.9393 36.5914 34.9189L38.1971 39.7319L40.8935 39.4979L41.6409 34.4712C42.2872 34.3695 42.9335 34.2575 43.59 34.1253L46.0036 38.5923L48.6193 37.8902L47.3468 29.5565Z"
        fill="currentColor"/>
      <path
        d="M42.0963 39.7523L39.6826 44.2193C39.0363 44.087 38.39 43.9751 37.7335 43.8733L36.9862 38.8466L34.2797 38.6126L32.6739 43.4256C32.0074 43.4053 31.351 43.4053 30.6945 43.4256L29.0888 38.6126L26.3924 38.8466L25.645 43.8632C24.9886 43.9649 24.3423 44.0768 23.6959 44.2091L21.2823 39.7523L18.6666 40.4645L19.9593 48.7779C26.6145 46.5291 33.9868 46.1526 41.2783 48.1267C42.0054 48.32 42.7224 48.5439 43.4294 48.7881L44.722 40.4645L42.0963 39.7523Z"
        fill="currentColor"/>
      <path
        d="M62.3648 34.746C62.3648 34.746 61.1933 33.1993 58.709 33.1993C56.2145 33.1993 52.9525 34.6341 52.9525 39.1724C52.9525 43.7106 56.2145 45.1861 58.709 45.1861C61.2034 45.1861 62.0012 43.8938 62.3648 43.2629C62.3648 46.0205 59.8502 47.3636 56.6791 45.7762L55.2551 48.8798C59.3452 50.9657 65.3844 50.4875 65.3844 43.2832V33.4843H62.789L62.3648 34.746ZM59.3452 41.9401C58.3353 41.9401 56.8104 41.238 56.8104 39.1724C56.8104 37.1067 58.3353 36.4046 59.3452 36.4046C60.3551 36.4046 61.8801 37.1067 61.8801 39.1724C61.8801 41.238 60.3551 41.9401 59.3452 41.9401Z"
        fill="currentColor"/>
      <path
        d="M98.9724 35.3463L98.3463 33.4842H95.7509V44.9011H99.3562V39.152C99.3562 37.1576 101.073 36.2214 102.881 36.9235L104.375 33.6775C100.568 31.9782 98.9724 35.3463 98.9724 35.3463Z"
        fill="currentColor"/>
      <path
        d="M93.084 33.4843H90.4885L90.0543 34.746C90.0543 34.746 88.8828 33.1993 86.3985 33.1993C83.904 33.1993 80.642 34.8783 80.642 39.1724C80.642 43.4257 83.904 45.1861 86.3985 45.1861C89.3171 45.1861 90.0543 43.2629 90.0543 43.2629V44.9113H93.084V43.2832V33.4843ZM87.0347 41.9401C86.0248 41.9401 84.4998 41.238 84.4998 39.1724C84.4998 37.1067 86.0248 36.4046 87.0347 36.4046C88.0446 36.4046 89.5695 37.1067 89.5695 39.1724C89.5695 41.238 88.0446 41.9401 87.0347 41.9401Z"
        fill="currentColor"/>
      <path
        d="M73.5318 32.9449C69.0983 32.9449 66.8058 36.1095 66.8058 39.0706C66.8058 42.0317 68.866 45.5524 73.2086 45.5524C77.5512 45.5524 79.0256 42.6931 79.2579 42.2352L76.8745 40.6681C76.41 41.4211 75.2688 42.3064 73.8044 42.3064C72.6127 42.3064 71.2696 41.5229 70.8151 40.1594H79.3488C79.5912 36.9134 77.9652 32.9449 73.5318 32.9449ZM70.9868 37.6867C71.4312 36.7608 72.2896 36.1502 73.4308 36.1502C75.0971 36.1502 75.6424 37.6867 75.6424 37.6867H70.9868Z"
        fill="currentColor"/>
    </g>
    <path
      d="M0.335663 17.0363V1.30976H6.94973C7.6919 1.30976 8.36859 1.46481 8.97979 1.77491C9.60554 2.07024 10.144 2.47633 10.5951 2.99316C11.0462 3.49523 11.3955 4.06374 11.6429 4.69871C11.8903 5.33368 12.014 5.98341 12.014 6.64791C12.014 7.54868 11.803 8.40515 11.3809 9.21731C10.9735 10.0295 10.3986 10.694 9.65647 11.2108C8.92885 11.7129 8.06299 11.9639 7.05887 11.9639H3.91555V17.0363H0.335663ZM3.91555 8.79646H6.84058C7.11708 8.79646 7.37175 8.71525 7.60459 8.55281C7.83742 8.39038 8.0266 8.14673 8.17213 7.82186C8.31765 7.497 8.39041 7.09829 8.39041 6.62576C8.39041 6.13846 8.3031 5.73976 8.12847 5.42966C7.96839 5.10479 7.75739 4.86853 7.49544 4.72086C7.24805 4.57319 6.98611 4.49936 6.70961 4.49936H3.91555V8.79646Z"
      fill="currentColor"/>
    <path
      d="M18.8748 17.2578C17.8998 17.2578 17.0266 17.0953 16.2554 16.7705C15.4986 16.4456 14.8583 16.0026 14.3344 15.4415C13.8106 14.8803 13.4104 14.238 13.1339 13.5144C12.8719 12.7908 12.741 12.0304 12.741 11.233C12.741 10.4208 12.8719 9.65293 13.1339 8.92936C13.4104 8.2058 13.8106 7.56344 14.3344 7.00231C14.8583 6.44118 15.4986 5.99818 16.2554 5.67331C17.0266 5.34844 17.8998 5.18601 18.8748 5.18601C19.8498 5.18601 20.7157 5.34844 21.4724 5.67331C22.2291 5.99818 22.8694 6.44118 23.3933 7.00231C23.9172 7.56344 24.3174 8.2058 24.5939 8.92936C24.8704 9.65293 25.0086 10.4208 25.0086 11.233C25.0086 12.0304 24.8704 12.7908 24.5939 13.5144C24.3174 14.238 23.9172 14.8803 23.3933 15.4415C22.8694 16.0026 22.2291 16.4456 21.4724 16.7705C20.7157 17.0953 19.8498 17.2578 18.8748 17.2578ZM16.3208 11.233C16.3208 11.8384 16.43 12.37 16.6483 12.8278C16.8811 13.2855 17.1867 13.6399 17.5651 13.891C17.9434 14.142 18.38 14.2675 18.8748 14.2675C19.355 14.2675 19.7843 14.142 20.1627 13.891C20.5556 13.6252 20.8612 13.2634 21.0795 12.8056C21.2978 12.3478 21.4069 11.8236 21.4069 11.233C21.4069 10.6275 21.2978 10.0959 21.0795 9.63816C20.8612 9.1804 20.5556 8.826 20.1627 8.57496C19.7843 8.32393 19.355 8.19841 18.8748 8.19841C18.38 8.19841 17.9434 8.32393 17.5651 8.57496C17.1867 8.826 16.8811 9.1804 16.6483 9.63816C16.43 10.0959 16.3208 10.6275 16.3208 11.233Z"
      fill="currentColor"/>
    <path
      d="M40.4588 5.40751H43.7768L39.04 17.0363H36.1586L34.4123 12.2962L32.666 17.0363H29.7847L25.0478 5.40751H28.344L31.4218 13.6916L32.5132 10.4577L30.4613 5.40751H33.3209L34.4123 8.90721L35.5037 5.40751H38.3415L36.3114 10.4577L37.4028 13.6916L40.4588 5.40751Z"
      fill="currentColor"/>
    <path
      d="M49.9555 17.2578C48.9805 17.2578 48.1146 17.1027 47.3579 16.7926C46.6011 16.4677 45.9536 16.0321 45.4151 15.4858C44.8912 14.9394 44.491 14.3118 44.2145 13.603C43.938 12.8794 43.7998 12.1263 43.7998 11.3437C43.7998 10.2214 44.0399 9.20255 44.5201 8.28701C45.0149 7.35671 45.7207 6.61099 46.6375 6.04986C47.5543 5.47396 48.6603 5.18601 49.9555 5.18601C51.2506 5.18601 52.3493 5.46658 53.2516 6.02771C54.1684 6.58884 54.8669 7.32718 55.3471 8.24271C55.8274 9.14348 56.0675 10.1255 56.0675 11.1887C56.0675 11.3954 56.0529 11.6021 56.0238 11.8089C56.0093 12.0008 55.9947 12.1706 55.9802 12.3183H47.5107C47.5543 12.8351 47.6926 13.2708 47.9254 13.6252C48.1728 13.9796 48.4857 14.2527 48.864 14.4447C49.2424 14.6219 49.6426 14.7105 50.0646 14.7105C50.5885 14.7105 51.076 14.585 51.5271 14.334C51.9928 14.0829 52.313 13.7433 52.4876 13.3151L55.4563 14.1568C55.1652 14.7622 54.7505 15.3012 54.212 15.7737C53.6882 16.2315 53.0624 16.5933 52.3348 16.8591C51.6217 17.1249 50.8286 17.2578 49.9555 17.2578ZM47.4233 10.1476H52.4003C52.3421 9.66031 52.2038 9.23946 51.9855 8.88506C51.7672 8.5159 51.4762 8.23533 51.1124 8.04336C50.7486 7.83663 50.3484 7.73326 49.9118 7.73326C49.4607 7.73326 49.0532 7.83663 48.6894 8.04336C48.3402 8.23533 48.0564 8.5159 47.8381 8.88506C47.6198 9.23946 47.4816 9.66031 47.4233 10.1476Z"
      fill="currentColor"/>
    <path
      d="M64.9193 8.44206C64.0753 8.44206 63.3113 8.58235 62.6273 8.86291C61.9433 9.12871 61.4486 9.52741 61.143 10.059V17.0363H57.6504V5.40751H60.8592V7.75541C61.2521 6.97278 61.7614 6.35996 62.3872 5.91696C63.0129 5.47396 63.6678 5.24508 64.3518 5.23031C64.5118 5.23031 64.6283 5.23031 64.701 5.23031C64.7883 5.23031 64.8611 5.23769 64.9193 5.25246V8.44206Z"
      fill="currentColor"/>
    <path
      d="M71.7841 17.2578C70.8091 17.2578 69.9432 17.1027 69.1865 16.7926C68.4297 16.4677 67.7822 16.0321 67.2437 15.4858C66.7198 14.9394 66.3196 14.3118 66.0431 13.603C65.7666 12.8794 65.6284 12.1263 65.6284 11.3437C65.6284 10.2214 65.8685 9.20255 66.3487 8.28701C66.8435 7.35671 67.5493 6.61099 68.4661 6.04986C69.3829 5.47396 70.4889 5.18601 71.7841 5.18601C73.0792 5.18601 74.1779 5.46658 75.0802 6.02771C75.997 6.58884 76.6955 7.32718 77.1757 8.24271C77.6559 9.14348 77.8961 10.1255 77.8961 11.1887C77.8961 11.3954 77.8815 11.6021 77.8524 11.8089C77.8379 12.0008 77.8233 12.1706 77.8087 12.3183H69.3393C69.3829 12.8351 69.5212 13.2708 69.754 13.6252C70.0014 13.9796 70.3143 14.2527 70.6926 14.4447C71.071 14.6219 71.4712 14.7105 71.8932 14.7105C72.4171 14.7105 72.9046 14.585 73.3557 14.334C73.8214 14.0829 74.1415 13.7433 74.3162 13.3151L77.2849 14.1568C76.9938 14.7622 76.5791 15.3012 76.0406 15.7737C75.5167 16.2315 74.891 16.5933 74.1634 16.8591C73.4503 17.1249 72.6572 17.2578 71.7841 17.2578ZM69.2519 10.1476H74.2289C74.1707 9.66031 74.0324 9.23946 73.8141 8.88506C73.5958 8.5159 73.3048 8.23533 72.941 8.04336C72.5772 7.83663 72.177 7.73326 71.7404 7.73326C71.2893 7.73326 70.8818 7.83663 70.518 8.04336C70.1687 8.23533 69.885 8.5159 69.6667 8.88506C69.4484 9.23946 69.3102 9.66031 69.2519 10.1476Z"
      fill="currentColor"/>
    <path
      d="M78.8241 11.2108C78.8241 10.0738 79.0424 9.05488 79.479 8.15411C79.9156 7.23858 80.5122 6.51501 81.2689 5.98341C82.0257 5.45181 82.8988 5.18601 83.8884 5.18601C84.6887 5.18601 85.4164 5.38536 86.0712 5.78406C86.7261 6.16799 87.2209 6.67744 87.5556 7.31241V0.86676H91.0481V13.0936C91.0481 13.448 91.1063 13.699 91.2228 13.8467C91.3392 13.9796 91.5284 14.0608 91.7903 14.0903V17.0363C91.1791 17.1544 90.6843 17.2135 90.306 17.2135C89.7093 17.2135 89.2218 17.0806 88.8434 16.8148C88.4796 16.549 88.2541 16.1798 88.1668 15.7073L88.1013 15.1092C87.6938 15.8328 87.1408 16.3718 86.4423 16.7262C85.7438 17.0806 85.0089 17.2578 84.2376 17.2578C83.4518 17.2578 82.7242 17.1101 82.0547 16.8148C81.3999 16.5047 80.8251 16.0764 80.3303 15.5301C79.8501 14.9837 79.479 14.3413 79.217 13.603C78.9551 12.8647 78.8241 12.0673 78.8241 11.2108ZM87.5774 12.6506V10.2141C87.4319 9.81536 87.2209 9.46835 86.9444 9.17301C86.6824 8.87768 86.3768 8.64141 86.0276 8.46421C85.6928 8.28701 85.3509 8.19841 85.0016 8.19841C84.6233 8.19841 84.274 8.27963 83.9538 8.44206C83.6482 8.6045 83.379 8.83338 83.1462 9.12871C82.9133 9.40928 82.7314 9.73415 82.6005 10.1033C82.484 10.4725 82.4258 10.8638 82.4258 11.2773C82.4258 11.7055 82.4913 12.1042 82.6223 12.4734C82.7678 12.8278 82.9643 13.1452 83.2117 13.4258C83.4591 13.6916 83.7501 13.8983 84.0848 14.046C84.4195 14.1937 84.7833 14.2675 85.1762 14.2675C85.4236 14.2675 85.6637 14.2306 85.8966 14.1568C86.1294 14.0682 86.3477 13.9574 86.5514 13.8245C86.7697 13.6916 86.9662 13.5218 87.1408 13.3151C87.3154 13.1083 87.461 12.8868 87.5774 12.6506Z"
      fill="currentColor"/>
    <path
      d="M105.732 17.2578C104.859 17.2578 104.095 17.0732 103.44 16.704C102.785 16.3201 102.269 15.7885 101.89 15.1092V17.0363H98.8561V0.86676H102.349V7.31241C102.727 6.63314 103.229 6.10893 103.855 5.73976C104.495 5.37059 105.245 5.18601 106.103 5.18601C106.831 5.18601 107.493 5.34844 108.09 5.67331C108.701 5.98341 109.225 6.41903 109.661 6.98016C110.112 7.52653 110.462 8.16888 110.709 8.90721C110.956 9.63078 111.08 10.4208 111.08 11.2773C111.08 12.119 110.942 12.9016 110.665 13.6252C110.403 14.3487 110.032 14.9837 109.552 15.5301C109.072 16.0764 108.504 16.5047 107.85 16.8148C107.209 17.1101 106.503 17.2578 105.732 17.2578ZM104.75 14.2675C105.143 14.2675 105.507 14.1937 105.841 14.046C106.191 13.8836 106.489 13.6695 106.736 13.4037C106.984 13.1379 107.173 12.8278 107.304 12.4734C107.435 12.1042 107.5 11.7055 107.5 11.2773C107.5 10.7309 107.391 10.2214 107.173 9.74891C106.955 9.27638 106.649 8.89983 106.256 8.61926C105.878 8.3387 105.434 8.19841 104.924 8.19841C104.561 8.19841 104.211 8.28701 103.877 8.46421C103.542 8.64141 103.244 8.88506 102.982 9.19516C102.72 9.4905 102.509 9.83013 102.349 10.2141V12.6506C102.465 12.9016 102.611 13.1305 102.785 13.3372C102.96 13.5292 103.149 13.6916 103.353 13.8245C103.571 13.9574 103.797 14.0682 104.029 14.1568C104.277 14.2306 104.517 14.2675 104.75 14.2675Z"
      fill="currentColor"/>
    <path
      d="M112.501 18.7861C112.792 18.8747 113.061 18.9412 113.309 18.9855C113.571 19.0445 113.803 19.0741 114.007 19.0741C114.284 19.0741 114.517 19.0076 114.706 18.8747C114.909 18.7566 115.084 18.5425 115.23 18.2324C115.375 17.937 115.506 17.5383 115.623 17.0363L111.257 5.40751H114.859L117.522 13.4037L119.792 5.40751H123.088L118.722 18.919C118.518 19.554 118.206 20.1151 117.784 20.6024C117.362 21.0897 116.852 21.4663 116.256 21.7321C115.659 22.0126 115.004 22.1529 114.291 22.1529C113.985 22.1529 113.687 22.1234 113.396 22.0643C113.105 22.02 112.807 21.9388 112.501 21.8207V18.7861Z"
      fill="currentColor"/>
    <defs>
      <clipPath id="clip0_5808_4993">
        <rect width="85.7102" height="20.3917" fill="white" transform="translate(18.6552 29.5565)"/>
      </clipPath>
    </defs>
  </symbol>
</svg>
